<svg width="66" height="66" viewBox="0 0 66 66" fill="none" xmlns="http://www.w3.org/2000/svg">
<path d="M29.2486 3.13803C30.5372 -0.344444 35.4628 -0.344449 36.7514 3.13802L43.1653 20.4714C43.5705 21.5663 44.4337 22.4295 45.5286 22.8347L62.862 29.2486C66.3444 30.5372 66.3445 35.4628 62.862 36.7514L45.5286 43.1653C44.4337 43.5705 43.5705 44.4337 43.1653 45.5286L36.7514 62.862C35.4628 66.3444 30.5372 66.3445 29.2486 62.862L22.8347 45.5286C22.4295 44.4337 21.5663 43.5705 20.4714 43.1653L3.13803 36.7514C-0.344444 35.4628 -0.344449 30.5372 3.13802 29.2486L20.4714 22.8347C21.5663 22.4295 22.4295 21.5663 22.8347 20.4714L29.2486 3.13803Z" fill="#269B51"/>
</svg>
