<svg width="28" height="28" viewBox="0 0 28 28" fill="none" xmlns="http://www.w3.org/2000/svg">
<path d="M15.3708 0.6679C16.3438 0.664167 17.3167 0.673945 18.2895 0.697234L18.5481 0.706567C18.8468 0.717234 19.1415 0.730567 19.4975 0.746567C20.9161 0.813234 21.8841 1.03723 22.7335 1.36657C23.6135 1.70523 24.3548 2.1639 25.0961 2.90523C25.774 3.57138 26.2986 4.37716 26.6335 5.26657C26.9628 6.1159 27.1868 7.08523 27.2535 8.5039C27.2695 8.85857 27.2828 9.15457 27.2935 9.45323L27.3015 9.7119C27.3251 10.6842 27.3354 11.6567 27.3321 12.6292L27.3335 13.6239V15.3706C27.3367 16.3436 27.3265 17.3165 27.3028 18.2892L27.2948 18.5479C27.2841 18.8466 27.2708 19.1412 27.2548 19.4972C27.1881 20.9159 26.9615 21.8839 26.6335 22.7332C26.2997 23.6236 25.7749 24.43 25.0961 25.0959C24.4294 25.7737 23.6232 26.2982 22.7335 26.6332C21.8841 26.9626 20.9161 27.1866 19.4975 27.2532C19.1415 27.2692 18.8468 27.2826 18.5481 27.2932L18.2895 27.3012C17.3168 27.3249 16.3438 27.3352 15.3708 27.3319L14.3761 27.3332H12.6308C11.6578 27.3365 10.6848 27.3263 9.71212 27.3026L9.45345 27.2946C9.13693 27.2831 8.82048 27.2698 8.50412 27.2546C7.08545 27.1879 6.11745 26.9612 5.26678 26.6332C4.37703 26.299 3.5711 25.7743 2.90545 25.0959C2.22685 24.4296 1.70175 23.6233 1.36679 22.7332C1.03745 21.8839 0.813452 20.9159 0.746785 19.4972C0.731935 19.1809 0.718602 18.8644 0.706785 18.5479L0.700118 18.2892C0.675537 17.3165 0.664424 16.3436 0.666785 15.3706V12.6292C0.663064 11.6567 0.672842 10.6842 0.696118 9.7119L0.705452 9.45323C0.716118 9.15457 0.729452 8.85857 0.745452 8.5039C0.812118 7.0839 1.03612 6.11723 1.36545 5.26657C1.70062 4.37673 2.22674 3.57116 2.90679 2.90657C3.57198 2.22757 4.3774 1.702 5.26678 1.36657C6.11745 1.03723 7.08412 0.813234 8.50412 0.746567L9.45345 0.706567L9.71212 0.699901C10.6844 0.675331 11.6569 0.664219 12.6295 0.666567L15.3708 0.6679ZM14.0001 7.33457C13.1168 7.32207 12.2398 7.48527 11.4201 7.81466C10.6004 8.14405 9.85431 8.63307 9.22525 9.25331C8.59618 9.87354 8.09665 10.6126 7.7557 11.4276C7.41475 12.2425 7.23917 13.1172 7.23917 14.0006C7.23917 14.884 7.41475 15.7586 7.7557 16.5736C8.09665 17.3885 8.59618 18.1276 9.22525 18.7478C9.85431 19.3681 10.6004 19.8571 11.4201 20.1865C12.2398 20.5159 13.1168 20.6791 14.0001 20.6666C15.7682 20.6666 17.4639 19.9642 18.7142 18.7139C19.9644 17.4637 20.6668 15.768 20.6668 13.9999C20.6668 12.2318 19.9644 10.5361 18.7142 9.28585C17.4639 8.03561 15.7682 7.33457 14.0001 7.33457ZM14.0001 10.0012C14.5315 9.99144 15.0594 10.0876 15.5532 10.2842C16.0469 10.4807 16.4966 10.7737 16.8758 11.146C17.2551 11.5182 17.5564 11.9623 17.762 12.4524C17.9677 12.9424 18.0737 13.4685 18.0738 13.9999C18.0739 14.5313 17.9681 15.0574 17.7626 15.5475C17.557 16.0376 17.2559 16.4818 16.8768 16.8542C16.4976 17.2266 16.0481 17.5197 15.5544 17.7164C15.0607 17.9131 14.5328 18.0095 14.0015 17.9999C12.9406 17.9999 11.9232 17.5785 11.173 16.8283C10.4229 16.0782 10.0015 15.0608 10.0015 13.9999C10.0015 12.939 10.4229 11.9216 11.173 11.1715C11.9232 10.4213 12.9406 9.9999 14.0015 9.9999L14.0001 10.0012ZM21.0001 5.33457C20.57 5.35178 20.1632 5.53477 19.8649 5.8452C19.5667 6.15562 19.4001 6.56941 19.4001 6.9999C19.4001 7.43039 19.5667 7.84418 19.8649 8.1546C20.1632 8.46503 20.57 8.64802 21.0001 8.66523C21.4421 8.66523 21.8661 8.48964 22.1786 8.17708C22.4912 7.86452 22.6668 7.44059 22.6668 6.99857C22.6668 6.55654 22.4912 6.13262 22.1786 5.82006C21.8661 5.50749 21.4421 5.3319 21.0001 5.3319V5.33457Z" fill="white"/>
</svg>
